<svg version="1.1" viewBox="0.0 0.0 100.0 100.0" fill="none" stroke="none" stroke-linecap="square" stroke-miterlimit="10" xmlns:xlink="http://www.w3.org/1999/xlink" xmlns="http://www.w3.org/2000/svg"><clipPath id="p.0"><path d="m0 0l100.0 0l0 100.0l-100.0 0l0 -100.0z" clip-rule="nonzero"/></clipPath><g clip-path="url(#p.0)"><path fill="#000000" fill-opacity="0.0" d="m0 0l100.0 0l0 100.0l-100.0 0z" fill-rule="evenodd"/><path fill="#cc0000" d="m0.992126 50.0l0 0c0 -27.066301 21.941572 -49.007874 49.007874 -49.007874l0 0c12.997696 0 25.463043 5.163315 34.6538 14.3540745c9.190758 9.190759 14.354073 21.656105 14.354073 34.6538l0 0c0 27.0663 -21.941574 49.007874 -49.007874 49.007874l0 0c-27.066301 0 -49.007874 -21.941574 -49.007874 -49.007874z" fill-rule="evenodd"/><path stroke="#cc0000" stroke-width="1.0" stroke-linejoin="round" stroke-linecap="butt" d="m0.992126 50.0l0 0c0 -27.066301 21.941572 -49.007874 49.007874 -49.007874l0 0c12.997696 0 25.463043 5.163315 34.6538 14.3540745c9.190758 9.190759 14.354073 21.656105 14.354073 34.6538l0 0c0 27.0663 -21.941574 49.007874 -49.007874 49.007874l0 0c-27.066301 0 -49.007874 -21.941574 -49.007874 -49.007874z" fill-rule="evenodd"/><path fill="#ffffff" d="m27.874008 77.74l0 -7.171875l5.78125 -1.171875l0 -38.25l-5.78125 -1.171875l0 -7.203125l44.515625 0l0 15.625l-9.25 0l-0.34375 -6.265625l-16.984375 0l0 13.9375l18.953125 0l0 9.28125l-18.953125 0l0 14.046875l5.78125 1.171875l0 7.171875l-23.71875 0z" fill-rule="nonzero"/></g></svg>